<?xml version="1.0" standalone="no"?>
<!DOCTYPE svg PUBLIC "-//W3C//DTD SVG 20010904//EN"
 "http://www.w3.org/TR/2001/REC-SVG-20010904/DTD/svg10.dtd">
<svg version="1.0" xmlns="http://www.w3.org/2000/svg"
 width="359.000000pt" height="359.000000pt" viewBox="0 0 359.000000 359.000000"
 preserveAspectRatio="xMidYMid meet">
<metadata>
Created by potrace 1.14, written by Peter Selinger 2001-2017
</metadata>
<g transform="translate(0.000000,359.000000) scale(0.100000,-0.100000)"
fill="#000000" stroke="none">
<path d="M1626 3580 c-70 -22 -82 -64 -41 -159 13 -32 27 -74 31 -92 10 -58 6
-217 -9 -304 -3 -16 -8 -57 -12 -90 -24 -236 -110 -286 -490 -286 -109 0 -277
8 -325 16 -14 2 -69 9 -124 15 -54 7 -108 14 -120 16 -75 16 -216 -19 -238
-59 -20 -38 81 -153 172 -196 72 -34 192 -38 298 -11 118 31 288 39 620 30 88
-2 102 -5 102 -19 0 -27 -65 -284 -108 -426 -84 -277 -205 -563 -325 -766 -46
-79 -228 -343 -247 -359 -3 -3 -35 -43 -72 -90 -36 -47 -74 -95 -84 -107 -11
-11 -33 -38 -50 -60 -149 -182 -346 -367 -502 -473 -53 -36 -98 -73 -100 -82
-2 -9 12 -30 30 -47 41 -39 83 -40 170 -7 173 65 357 210 529 416 30 36 63 74
74 86 11 11 38 43 60 70 22 27 54 64 71 84 116 133 215 273 284 405 29 55 92
170 140 255 48 85 133 238 189 340 56 102 106 188 110 192 14 16 174 -219 277
-407 27 -49 54 -99 61 -110 7 -11 17 -29 23 -40 6 -11 23 -42 38 -70 15 -27
45 -80 65 -117 136 -249 379 -562 672 -866 155 -161 184 -179 332 -218 52 -13
103 -29 112 -33 31 -17 162 66 285 179 52 48 83 110 55 110 -10 0 -223 106
-609 303 -240 124 -266 143 -369 272 -156 195 -468 700 -652 1052 -39 76 -91
167 -115 203 -89 132 -72 250 43 306 36 17 81 18 698 19 723 1 697 -1 714 60
6 24 1 44 -23 95 -104 216 -228 379 -307 400 -56 15 -100 0 -146 -51 -93 -103
-216 -167 -416 -214 -152 -35 -183 -40 -287 -40 -109 0 -142 14 -165 69 -23
54 -5 288 26 353 29 60 40 140 25 183 -17 49 -81 145 -126 190 -71 71 -168
103 -244 80z"/>
<path d="M1437 1038 c-51 -46 -47 -60 46 -156 149 -153 255 -305 383 -551 42
-81 61 -98 119 -106 22 -3 61 -10 88 -16 72 -17 99 5 110 90 3 22 -1 56 -17
126 -22 100 -100 238 -174 306 -72 68 -232 175 -328 221 -48 23 -101 55 -118
70 -17 15 -36 28 -42 28 -7 0 -19 3 -27 6 -8 3 -26 -5 -40 -18z"/>
</g>
</svg>
